<svg version="1.1" id="Layer_1" xmlns="http://www.w3.org/2000/svg" xmlns:xlink="http://www.w3.org/1999/xlink" x="0px" y="0px"
	 width="100%" viewBox="0 0 1024 1024" enable-background="new 0 0 1024 1024" xml:space="preserve">
<path fill="#000000" opacity="1.000000" stroke="none" 
	d="
M323.689026,427.994537 
	C353.842285,436.853302 373.847992,461.178894 374.849823,492.000031 
	C376.118774,531.037659 349.594879,562.888733 312.403229,566.983521 
	C273.050171,571.316223 238.793182,546.177429 233.992859,506.162262 
	C228.823181,463.068268 258.315918,430.380432 297.546661,425.865295 
	C306.156738,424.874359 314.843048,425.549042 323.689026,427.994537 
z"/>
<path fill="#000000" opacity="1.000000" stroke="none" 
	d="
M427.299347,513.973999 
	C427.290344,527.283997 427.290344,527.283997 414.676422,527.297913 
	C414.509796,527.298096 414.343140,527.298035 414.176514,527.298157 
	C404.171936,527.304077 402.327179,529.713196 404.351898,539.713257 
	C404.961365,542.723389 407.056732,542.851013 409.244537,542.636902 
	C414.569214,542.116028 419.865570,542.303772 425.189423,542.633728 
	C428.675720,542.849731 430.374878,544.307983 430.328339,547.876648 
	C430.256622,553.374695 430.275116,558.875061 430.340912,564.373352 
	C430.383575,567.935425 428.787781,569.592407 425.178986,569.413879 
	C422.685150,569.290527 420.181061,569.369080 417.681580,569.366699 
	C415.384247,569.364563 413.749084,568.535156 413.661224,565.976257 
	C413.553528,562.840698 411.606171,562.177795 408.947723,562.190857 
	C404.283081,562.213745 399.609375,562.296387 394.955688,562.048462 
	C391.196320,561.848145 389.973511,563.430603 390.025330,567.035400 
	C390.202148,579.335266 390.221283,591.637939 390.229065,603.939514 
	C390.233612,611.104614 388.962402,612.310181 381.772919,612.330078 
	C378.606812,612.338806 375.440002,612.272217 372.274628,612.316284 
	C367.771912,612.378967 365.420044,610.474487 365.649597,605.705994 
	C365.817657,602.215088 365.589447,598.706848 365.679901,595.209961 
	C365.751740,592.433289 364.512787,591.438538 361.787506,591.316223 
	C356.923157,591.097900 352.166290,591.944641 347.362885,592.323120 
	C344.625366,592.538818 344.349060,594.450684 344.354462,596.607727 
	C344.365692,601.106934 344.204834,605.611572 344.374969,610.104126 
	C344.547729,614.666992 342.381714,616.419739 338.033997,616.328674 
	C331.703888,616.195984 325.362762,616.399414 319.041046,616.123474 
	C314.852570,615.940674 313.347046,617.750183 313.394470,621.698425 
	C313.488495,629.523254 313.453247,637.349915 313.430664,645.175720 
	C313.413757,651.023315 310.009338,654.305786 304.046082,654.307617 
	C298.772308,654.309204 294.749359,650.670227 294.719055,645.324341 
	C294.614288,626.827881 294.582062,608.329529 294.737061,589.833740 
	C294.791443,583.343445 298.856842,579.863403 305.933929,579.875427 
	C326.511841,579.910339 344.521698,573.038940 359.622437,559.222412 
	C377.578339,542.793518 387.041321,522.324829 386.994934,497.767242 
	C386.980133,489.927368 387.264709,489.481323 395.127350,489.685364 
	C401.597870,489.853241 408.059662,490.475464 414.528992,490.542572 
	C421.350922,490.613403 424.860321,486.891571 425.011017,480.019928 
	C425.260254,468.654053 425.260223,468.648712 436.609833,468.653839 
	C450.508453,468.660126 449.351440,467.730713 449.319427,481.302917 
	C449.286438,495.285950 451.011078,494.467621 436.691803,494.439270 
	C431.434662,494.428864 427.445496,498.636749 427.319244,503.986481 
	C427.244568,507.150757 427.301361,510.318146 427.299347,513.973999 
z"/>
<path fill="#000000" opacity="1.000000" stroke="none" 
	d="
M490.064880,434.263306 
	C491.871185,413.548218 506.977539,407.305634 521.108948,405.842255 
	C531.277954,404.789215 541.358643,405.848572 550.756775,410.702240 
	C559.976135,415.463593 563.865845,423.479187 565.296204,433.188873 
	C565.869507,437.080444 564.309448,438.796539 560.336243,438.395447 
	C558.687195,438.228973 556.994263,438.236389 555.343506,438.395050 
	C550.015625,438.907135 546.620544,438.083344 544.304199,431.806152 
	C540.335876,421.052246 520.619873,418.967957 513.067139,427.749084 
	C507.967743,433.677917 509.678558,441.645050 516.985352,445.259766 
	C522.693420,448.083557 529.008667,449.048584 535.100830,450.662933 
	C539.776001,451.901794 544.364441,453.346771 548.853088,455.144928 
	C559.573425,459.439514 565.889221,466.904022 566.346741,478.821930 
	C566.844116,491.776215 561.902222,501.940582 549.846863,506.995056 
	C533.767578,513.736572 517.368408,513.749146 501.780945,505.118347 
	C491.449799,499.397919 488.353241,489.711578 488.705841,477.601990 
	C494.410034,477.601990 499.833221,477.605255 505.256378,477.600281 
	C507.232178,477.598480 507.630463,479.070099 508.073578,480.542053 
	C512.497070,495.235931 531.314819,497.643555 542.092468,490.149841 
	C549.761902,484.817291 548.712891,475.048676 539.959290,471.608002 
	C533.187622,468.946411 526.004700,467.302429 518.956604,465.382568 
	C514.118835,464.064758 509.442749,462.322266 504.928711,460.217621 
	C494.128784,455.182343 490.007202,446.114807 490.064880,434.263306 
z"/>
<path fill="#000000" opacity="1.000000" stroke="none" 
	d="
M878.721191,497.557190 
	C872.058411,509.348907 855.328003,513.192261 842.612915,510.847229 
	C823.854553,507.387634 815.820435,497.786469 813.470520,478.763947 
	C812.492493,470.847015 812.467468,463.200531 814.755615,455.601013 
	C817.963928,444.945221 824.828247,437.890259 835.536926,434.488586 
	C842.379883,432.314850 849.350586,431.959167 856.260498,433.148895 
	C872.370117,435.922760 880.603638,445.145935 883.265808,462.717163 
	C883.712708,465.666534 883.931396,468.649689 884.311890,471.610016 
	C884.858643,475.863556 883.257690,477.522064 878.765198,477.443695 
	C865.109558,477.205414 851.447144,477.346405 837.787354,477.361115 
	C831.967957,477.367401 830.939636,478.877716 833.044739,484.210785 
	C837.682129,495.959076 853.879333,499.576447 862.321228,490.403198 
	C865.032532,487.457092 867.632446,486.290222 871.355774,486.653290 
	C874.793640,486.988495 878.326294,486.091125 881.825989,487.353424 
	C882.334900,491.147125 880.416260,494.134735 878.721191,497.557190 
M857.791016,450.550446 
	C847.082153,445.670868 836.715149,449.009277 833.112183,458.497589 
	C831.484802,462.783020 832.489685,464.437164 837.005737,464.583405 
	C840.661133,464.701752 844.324768,464.686096 847.981873,464.603546 
	C853.726685,464.473877 859.522583,465.108246 865.508362,464.024933 
	C864.595581,458.463684 862.990356,453.910889 857.791016,450.550446 
z"/>
<path fill="#000000" opacity="1.000000" stroke="none" 
	d="
M581.135559,433.683502 
	C595.008362,433.653992 594.972107,433.654144 595.032471,447.145477 
	C595.080139,457.806976 595.074219,468.472565 595.387390,479.127686 
	C595.624573,487.199890 600.041565,492.599579 606.588440,493.577698 
	C615.223938,494.867859 621.219543,491.298096 623.962891,483.005157 
	C625.056274,479.700012 625.718323,476.285034 625.694580,472.730957 
	C625.618896,461.399963 625.815552,450.065338 625.596924,438.738098 
	C625.519592,434.729736 626.977539,433.641235 630.813599,433.607452 
	C644.341187,433.488281 644.339783,433.364502 644.337708,446.900787 
	C644.334900,465.731110 644.216980,484.562622 644.414612,503.390839 
	C644.461609,507.862732 643.250366,509.980225 638.532288,509.371063 
	C636.729736,509.138336 634.857361,509.195221 633.040833,509.369965 
	C628.418152,509.814667 624.615051,509.328217 625.452698,502.484009 
	C619.185364,507.514252 613.339966,511.361420 605.685791,511.385803 
	C588.278625,511.441315 576.996338,500.818756 576.728149,483.382721 
	C576.497498,468.388672 576.710388,453.388153 576.646423,438.390869 
	C576.634216,435.519684 577.087158,433.361511 581.135559,433.683502 
z"/>
<path fill="#000000" opacity="1.000000" stroke="none" 
	d="
M701.410767,452.507629 
	C692.236206,444.876526 676.687073,451.541107 676.396851,467.928375 
	C676.184448,479.920593 676.214294,491.921844 676.422668,503.914124 
	C676.493591,507.993835 675.238281,509.502625 671.041443,509.397400 
	C655.722900,509.013367 658.037231,511.450745 657.928528,496.595337 
	C657.789673,477.602753 657.994385,458.607574 657.828064,439.615448 
	C657.788879,435.138977 659.145569,433.106628 663.832886,433.632935 
	C667.757141,434.073578 671.789429,433.098694 675.517029,434.220337 
	C676.954773,436.263763 675.555725,438.810455 677.770447,441.056976 
	C681.870850,437.773956 686.183533,434.679382 691.617065,433.377014 
	C709.709534,429.040497 725.234009,440.727448 725.353577,459.175415 
	C725.454041,474.666107 725.406860,490.157745 725.408203,505.648987 
	C725.408264,506.620514 725.261658,507.592041 725.162354,508.823029 
	C720.083801,509.766968 715.125427,509.339111 710.200439,509.169952 
	C707.231506,509.067963 707.651428,506.555115 707.639099,504.646393 
	C707.575500,494.816833 707.687622,484.985260 707.537048,475.157501 
	C707.468262,470.670837 707.057007,466.178253 706.576721,461.712524 
	C706.190125,458.118103 704.588074,455.039429 701.410767,452.507629 
z"/>
<path fill="#000000" opacity="1.000000" stroke="none" 
	d="
M780.353394,510.950073 
	C773.766724,511.522461 767.665222,511.623962 761.603394,509.925446 
	C747.643616,506.013947 738.641296,495.129059 736.517517,480.784424 
	C735.162354,471.631134 735.761719,462.878967 738.838379,454.303131 
	C743.510864,441.279083 755.680725,432.983582 769.510681,432.632721 
	C779.413574,432.381500 788.700806,433.708496 796.789124,440.080261 
	C802.394043,444.495667 804.928101,450.433350 806.176636,457.156158 
	C806.739807,460.188751 805.440491,461.509918 802.393250,461.367493 
	C800.398682,461.274292 798.378662,461.184113 796.400696,461.388733 
	C792.064148,461.837341 789.259644,460.727631 786.768372,456.465790 
	C780.942383,446.499115 765.572632,446.747498 758.841064,456.430664 
	C752.723572,465.230316 753.096741,479.379456 759.670715,487.888489 
	C766.194031,496.332001 780.908813,495.808075 787.539673,486.896240 
	C789.942566,483.666809 801.812439,481.273712 805.173279,483.463226 
	C807.349548,484.881012 806.443054,487.094604 805.951172,488.907898 
	C802.762756,500.661224 794.834778,507.461121 783.214233,510.290527 
	C782.407776,510.486908 781.592590,510.647369 780.353394,510.950073 
z"/>
<path fill="#000000" opacity="1.000000" stroke="none" 
	d="
M620.606079,565.509033 
	C621.908081,585.790527 612.112549,599.989807 589.396423,601.178223 
	C582.094482,601.560242 574.754761,601.162720 567.435547,601.296997 
	C564.106018,601.358154 562.634033,600.233887 562.652344,596.697083 
	C562.753357,577.228699 562.747986,557.759155 562.647400,538.290710 
	C562.630127,534.936707 563.650024,533.490723 567.203430,533.574707 
	C575.352722,533.767456 583.571411,533.018494 591.649536,533.805298 
	C607.298523,535.329773 619.919067,544.015381 620.606079,565.509033 
M589.231201,587.726990 
	C599.394958,586.345581 604.106506,582.662048 606.242981,574.292664 
	C607.117798,570.865662 606.772461,567.341614 606.621948,563.872314 
	C606.235107,554.958069 602.201904,550.333801 593.505493,548.075989 
	C589.557312,547.050964 585.584656,547.497864 581.626221,547.227783 
	C578.362427,547.005005 577.250854,548.473389 577.299194,551.653381 
	C577.430481,560.292053 577.334412,568.934143 577.342529,577.574829 
	C577.353088,588.798584 577.358948,588.798584 589.231201,587.726990 
z"/>
<path fill="#000000" opacity="1.000000" stroke="none" 
	d="
M875.961426,601.251099 
	C867.756653,601.242615 867.756836,601.242615 867.743225,593.702576 
	C867.733948,588.536499 867.657043,583.369385 867.741333,578.204834 
	C867.786743,575.420654 866.586609,574.327332 863.841736,574.367126 
	C857.677002,574.456604 851.508301,574.482605 845.344727,574.357361 
	C842.316956,574.295898 841.188232,575.531555 841.245239,578.509094 
	C841.359924,584.506104 841.151917,590.509827 841.298950,596.505371 
	C841.382019,599.891724 840.159302,601.297974 836.662048,601.258667 
	C824.174011,601.118164 825.828491,602.479980 825.773376,590.838867 
	C825.692871,573.840820 825.883240,556.840088 825.633484,539.845276 
	C825.564636,535.160400 826.777771,533.335876 831.737305,533.532776 
	C842.394226,533.955933 841.178467,532.632141 841.258545,542.854187 
	C841.295105,547.520142 841.381714,552.189697 841.243225,556.851624 
	C841.147461,560.073425 842.813721,560.790161 845.596130,560.742737 
	C851.427307,560.643188 857.265381,560.565308 863.092346,560.746643 
	C866.518372,560.853271 867.903564,559.650391 867.797791,556.140930 
	C867.617126,550.147217 867.864929,544.141235 867.724915,538.145325 
	C867.652832,535.058655 868.571350,533.571838 871.935913,533.599304 
	C884.596069,533.702881 882.219727,532.778442 882.309631,543.403320 
	C882.456299,560.733765 882.201538,578.068481 882.448486,595.396606 
	C882.515137,600.071228 880.929443,601.848999 875.961426,601.251099 
z"/>
<path fill="#000000" opacity="1.000000" stroke="none" 
	d="
M735.864319,601.230408 
	C723.383057,601.237610 711.387329,601.139038 699.395508,601.311401 
	C695.626709,601.365540 694.195740,600.437073 694.230042,596.268188 
	C694.386169,577.281311 694.218445,558.290405 694.010071,539.302734 
	C693.963867,535.094666 695.323730,533.430237 699.779541,533.536621 
	C711.267517,533.810913 722.766418,533.620911 734.260925,533.638367 
	C741.363953,533.649231 741.363953,533.667358 741.347778,540.746338 
	C741.333008,547.250854 741.330505,547.365784 734.679871,547.221863 
	C728.706665,547.092712 722.731873,547.651917 716.744019,546.612488 
	C714.182983,546.167847 710.355835,544.933350 708.977600,547.928650 
	C707.411438,551.332520 707.989685,555.464966 708.767761,559.206177 
	C709.145325,561.021729 711.176453,560.638611 712.626953,560.645813 
	C719.623474,560.679993 726.626892,560.850647 733.614563,560.601257 
	C738.278076,560.434814 738.166809,563.296814 738.087891,566.454834 
	C738.009888,569.573669 738.753296,572.916077 733.651062,572.934875 
	C727.021240,572.959167 720.405823,572.409973 713.735107,573.101074 
	C709.800964,573.508728 708.185547,574.351807 708.257935,578.592224 
	C708.419800,588.074951 708.520752,588.088135 718.218262,587.230042 
	C724.666199,586.659607 731.196411,587.035339 737.689148,586.944946 
	C740.155273,586.910583 741.411804,587.945557 741.332031,590.507507 
	C741.269897,592.504211 741.189758,594.518250 741.372803,596.500977 
	C741.725891,600.327148 739.892212,601.636841 735.864319,601.230408 
z"/>
<path fill="#000000" opacity="1.000000" stroke="none" 
	d="
M752.004272,571.546021 
	C751.816711,557.606445 754.265381,545.201050 766.848938,537.326782 
	C778.550110,530.004639 796.449646,531.630310 805.920959,540.710938 
	C809.948059,544.571899 811.894592,549.441284 813.120056,554.694031 
	C813.808350,557.644470 812.630005,558.975464 809.501587,559.013428 
	C804.490662,559.074158 800.032532,559.644104 797.447388,553.237610 
	C795.142700,547.526001 789.286560,545.947266 783.124268,546.350098 
	C776.936462,546.754578 772.244385,549.447693 769.608887,555.064758 
	C766.597961,561.481873 766.322083,568.308899 768.192932,575.039978 
	C770.346924,582.789917 775.359375,587.114990 781.946350,587.642334 
	C789.877319,588.277283 796.644104,586.688416 799.580872,578.116577 
	C800.164368,576.413269 801.297913,575.733948 802.954895,575.772705 
	C806.242004,575.849487 809.570251,575.281677 813.339783,576.365662 
	C813.359924,583.410706 810.624146,589.092102 805.647766,593.919434 
	C794.224609,605.000366 766.824524,605.122559 756.686768,587.156799 
	C754.011169,582.415100 753.077087,577.205750 752.004272,571.546021 
z"/>
<path fill="#000000" opacity="1.000000" stroke="none" 
	d="
M509.487061,586.582336 
	C506.835175,586.457581 505.937744,587.938477 505.349884,589.832214 
	C504.560852,592.374023 503.607056,594.870422 502.936890,597.441772 
	C502.179230,600.348877 500.481567,601.471375 497.495575,601.293701 
	C494.216827,601.098511 490.917480,601.249268 488.195679,601.249268 
	C486.767670,599.395020 487.426483,598.308044 487.816681,597.248779 
	C494.890686,578.044983 502.086517,558.884949 508.980682,539.616943 
	C510.443817,535.527588 512.482056,533.803040 516.912354,533.941772 
	C527.706909,534.279907 525.613098,533.172729 529.180115,542.532898 
	C535.935364,560.259338 542.441528,578.080994 549.236938,595.791870 
	C550.757812,599.755615 550.045044,601.486450 545.680603,601.252625 
	C544.849976,601.208069 544.014648,601.253662 543.181458,601.255249 
	C535.419250,601.270020 534.999084,601.379944 533.004089,593.761658 
	C531.560608,588.249390 529.030579,586.139709 523.308289,586.787048 
	C518.883118,587.287659 514.334045,586.693359 509.487061,586.582336 
M515.883362,573.708008 
	C518.964355,573.535278 522.136841,574.222351 525.392700,572.901001 
	C524.045532,566.571899 521.602600,560.959351 518.442444,554.200867 
	C516.101257,560.358276 514.237915,565.296753 512.344482,570.223694 
	C511.293823,572.957642 512.432129,573.909912 515.883362,573.708008 
z"/>
<path fill="#000000" opacity="1.000000" stroke="none" 
	d="
M647.288940,548.831421 
	C642.412964,545.949402 637.333130,547.296082 632.492859,547.428223 
	C627.053284,547.576843 626.644104,544.884155 626.732788,540.659546 
	C626.819214,536.543152 626.572266,533.342896 632.530640,533.497498 
	C647.501404,533.885681 662.488953,533.621155 677.469727,533.648315 
	C678.922424,533.651001 680.374756,533.862549 682.336853,534.017395 
	C682.336853,537.423462 682.287292,540.545471 682.352417,543.665161 
	C682.405457,546.205566 681.212036,547.275024 678.725403,547.247192 
	C674.731384,547.202393 670.722595,547.465271 666.745239,547.208313 
	C662.672852,546.945312 661.203857,548.359985 661.267273,552.572937 
	C661.482849,566.884705 661.161438,581.205444 661.451904,595.514526 
	C661.549622,600.328064 659.751526,601.639404 655.347961,601.263000 
	C651.511902,600.934998 647.371155,602.363708 647.521912,595.647339 
	C647.869019,580.179810 647.520935,564.696716 647.288940,548.831421 
z"/>
<path fill="#000000" opacity="1.000000" stroke="none" 
	d="
M234.417145,438.995728 
	C219.157486,425.345551 205.511551,410.556702 191.149460,396.493927 
	C187.622665,393.040649 188.067123,387.856201 191.552887,384.465576 
	C195.087357,381.027618 200.243942,380.500214 203.664856,383.830261 
	C217.594849,397.390259 231.400101,411.079407 245.155701,424.816711 
	C248.081970,427.739105 248.041840,431.488007 246.411316,435.029846 
	C244.865738,438.387207 241.924164,439.778412 238.237213,439.499023 
	C237.078918,439.411194 235.925507,439.259460 234.417145,438.995728 
M196.484741,385.625092 
	C193.161789,383.478882 193.096680,386.478363 192.468430,388.279083 
	C191.933884,389.811127 192.238251,391.571014 194.004517,391.854980 
	C196.657974,392.281616 196.550720,389.925598 196.840240,388.208679 
	C196.946243,387.580017 196.792435,386.907562 196.484741,385.625092 
z"/>
<path fill="#000000" opacity="1.000000" stroke="none" 
	d="
M313.099915,396.897217 
	C312.987183,399.539429 312.999756,401.712799 312.738342,403.852661 
	C311.978516,410.072571 308.787323,412.737610 302.848480,412.264374 
	C297.011597,411.799255 294.690735,409.124939 294.681213,402.653931 
	C294.655487,385.171875 294.657562,367.689697 294.679871,350.207642 
	C294.688385,343.554993 296.951324,340.937592 302.760590,340.688629 
	C309.588257,340.395996 312.752747,342.959747 312.877350,349.963684 
	C313.152710,365.443207 313.049103,380.929504 313.099915,396.897217 
z"/>
<path fill="#000000" opacity="1.000000" stroke="none" 
	d="
M200.655960,587.655762 
	C210.819824,577.543274 220.701660,567.648438 230.652603,557.823547 
	C234.137207,554.383118 239.515656,553.530334 242.930786,555.648621 
	C248.147781,558.884583 248.335190,565.042175 243.280289,570.059448 
	C232.766754,580.494507 222.204407,590.880310 211.677689,601.302063 
	C208.957047,603.995667 206.330475,606.784607 203.595764,609.463379 
	C199.898270,613.085266 194.554871,613.299194 191.031311,610.043396 
	C187.634338,606.904541 187.476028,601.162476 190.898880,597.467163 
	C193.951279,594.171875 197.225037,591.081604 200.655960,587.655762 
z"/>
<path fill="#000000" opacity="1.000000" stroke="none" 
	d="
M198.993164,506.321167 
	C185.194336,506.320068 171.894073,506.298065 158.593933,506.332031 
	C155.528427,506.339874 152.447998,506.087372 150.206345,503.899170 
	C147.622528,501.376862 146.129089,498.160767 147.382950,494.446838 
	C148.708633,490.520203 151.699890,488.697205 155.794022,488.695038 
	C174.248062,488.685303 192.702301,488.645203 211.156021,488.723755 
	C216.502075,488.746521 219.278778,491.803650 219.352173,497.231140 
	C219.422791,502.452301 216.536667,505.916077 211.458496,506.230469 
	C207.482956,506.476562 203.481644,506.306000 198.993164,506.321167 
z"/>
<path fill="#000000" opacity="1.000000" stroke="none" 
	d="
M409.997925,446.742188 
	C413.523865,453.817413 412.181763,460.946594 411.481415,467.954559 
	C411.231720,470.453369 408.496948,470.995453 406.311462,470.955322 
	C401.335175,470.864075 396.339752,470.712799 391.399933,470.159180 
	C388.579041,469.843079 386.567993,468.150116 386.656708,464.798584 
	C386.762268,460.810974 386.505035,456.807434 386.744629,452.831299 
	C387.059265,447.610077 389.144287,445.605682 394.290863,445.700470 
	C399.405151,445.794647 404.589050,444.908875 409.997925,446.742188 
z"/>
<path fill="#000000" opacity="1.000000" stroke="none" 
	d="
M194.474518,535.454224 
	C201.795471,532.151245 208.744125,528.954956 215.724686,525.829895 
	C220.558319,523.665955 225.036240,524.978699 226.854462,528.988159 
	C228.637817,532.920776 226.951355,536.788330 222.172821,539.037842 
	C214.802567,542.507385 207.375778,545.860535 199.921310,549.145813 
	C196.959579,550.451111 193.841263,551.147034 190.921982,548.937622 
	C188.301849,546.954590 187.347321,544.246155 187.729263,541.016663 
	C188.178238,537.220032 191.397583,536.705322 194.474518,535.454224 
z"/>
<path fill="#000000" opacity="1.000000" stroke="none" 
	d="
M225.775116,467.570984 
	C222.534592,470.361481 219.336288,470.698944 215.751312,469.270538 
	C207.894730,466.140045 199.957916,463.210114 192.113174,460.050995 
	C187.836975,458.328949 186.145538,454.051971 188.002899,449.856750 
	C189.854568,445.674316 193.065826,445.155273 197.075180,446.714355 
	C205.264740,449.898926 213.520386,452.913300 221.713852,456.088043 
	C227.666595,458.394562 228.682907,461.145844 225.775116,467.570984 
z"/>
<path fill="#000000" opacity="1.000000" stroke="none" 
	d="
M257.737030,381.319153 
	C262.859619,379.841156 265.806549,381.871429 267.449310,386.240448 
	C270.200104,393.556305 273.038818,400.841736 275.633850,408.212769 
	C278.100250,415.218353 274.717468,419.861359 267.893463,419.357239 
	C265.174377,419.156372 263.576050,417.749817 262.662201,415.427063 
	C259.434387,407.223114 256.128204,399.044983 253.150070,390.749939 
	C251.661865,386.604767 252.902084,383.187866 257.737030,381.319153 
z"/>
<path fill="#000000" opacity="1.000000" stroke="none" 
	d="
M373.624268,398.054749 
	C372.017456,397.141907 371.127197,396.052704 371.200439,394.656097 
	C371.520935,388.543762 372.100403,382.455627 370.875458,376.346741 
	C370.523560,374.591675 372.142517,373.950378 373.732422,373.543823 
	C379.144714,372.159790 384.591980,372.525909 390.037354,373.111359 
	C392.048370,373.327576 393.294220,374.369476 393.344727,376.685883 
	C393.464020,382.156464 393.798065,387.621979 393.954163,393.092163 
	C394.059082,396.770172 392.340881,398.569031 388.482025,398.403198 
	C383.675629,398.196564 378.857788,398.255493 373.624268,398.054749 
z"/>
<path fill="#000000" opacity="1.000000" stroke="none" 
	d="
M255.242554,610.938232 
	C251.664536,608.552551 250.888809,605.430176 252.146515,601.994507 
	C255.166016,593.746216 258.278046,585.525513 261.625336,577.406067 
	C263.422607,573.046387 267.065063,571.626465 270.849060,573.208618 
	C274.440125,574.710083 275.957458,578.425232 274.461395,582.786682 
	C271.771271,590.629272 269.011963,598.451233 266.099670,606.213501 
	C264.048553,611.680481 261.450256,612.777588 255.242554,610.938232 
z"/>
<path fill="#000000" opacity="1.000000" stroke="none" 
	d="
M369.849274,412.655151 
	C374.868256,412.151581 376.695312,414.151825 376.400543,418.708405 
	C376.132507,422.852081 376.365082,427.026062 376.295624,431.185333 
	C376.239075,434.571503 374.612823,436.449493 371.043640,436.366913 
	C367.883179,436.293793 364.720093,436.332275 361.559601,436.259674 
	C355.908630,436.129852 354.794006,435.057953 354.706970,429.575317 
	C354.654175,426.248444 354.593903,422.911957 354.779480,419.593353 
	C355.024048,415.219910 356.858673,412.351562 361.885040,412.696564 
	C364.367340,412.866913 366.874146,412.680023 369.849274,412.655151 
z"/>
<path fill="#000000" opacity="1.000000" stroke="none" 
	d="
M403.519531,410.785095 
	C407.286713,410.776611 410.608551,410.847321 413.928009,410.786591 
	C417.915192,410.713684 420.244537,412.192139 420.156494,416.576202 
	C420.076599,420.556061 420.203979,424.542999 420.338867,428.523438 
	C420.454834,431.946106 418.752899,433.339081 415.488312,433.295013 
	C412.334229,433.252411 409.158112,433.068573 406.028961,433.354645 
	C401.137451,433.801788 398.782227,431.638733 398.825226,426.896851 
	C398.865631,422.443451 399.059723,417.983276 399.417603,413.544708 
	C399.576935,411.568878 401.326874,411.025513 403.519531,410.785095 
z"/>
<path fill="#000000" opacity="1.000000" stroke="none" 
	d="
M351.319794,390.314514 
	C351.338898,391.271484 351.333496,391.767578 351.347839,392.263062 
	C351.633575,402.126526 351.936615,402.679688 339.670502,402.282166 
	C339.027374,402.261353 338.167175,402.243073 337.786530,401.853638 
	C333.969757,397.948669 337.390686,393.391479 336.808746,389.146790 
	C336.444061,386.486847 339.051880,385.966614 340.996765,386.163361 
	C344.681213,386.536072 349.591278,383.896271 351.319794,390.314514 
z"/>
</svg>